<svg xmlns="http://www.w3.org/2000/svg" xmlns:xlink="http://www.w3.org/1999/xlink" width="500" zoomAndPan="magnify" viewBox="0 0 375 374.999991" height="500" preserveAspectRatio="xMidYMid meet" version="1.0"><defs><clipPath id="4377ba3f0b"><path d="M 183 244 L 192 244 L 192 280.902344 L 183 280.902344 Z M 183 244 " clip-rule="nonzero"/></clipPath><clipPath id="12b2fd957e"><path d="M 183 94.152344 L 192 94.152344 L 192 131 L 183 131 Z M 183 94.152344 " clip-rule="nonzero"/></clipPath><clipPath id="c44906217f"><path d="M 244 183 L 280.902344 183 L 280.902344 192 L 244 192 Z M 244 183 " clip-rule="nonzero"/></clipPath><clipPath id="28c273c45f"><path d="M 94.152344 183 L 131 183 L 131 192 L 94.152344 192 Z M 94.152344 183 " clip-rule="nonzero"/></clipPath></defs><g clip-path="url(#4377ba3f0b)"><path fill="#6d6d6d" d="M 187.535156 280.898438 C 185.148438 280.898438 183.203125 278.964844 183.203125 276.582031 L 183.203125 263.371094 C 183.203125 263.28125 183.207031 263.195312 183.210938 263.105469 C 183.210938 262.238281 183.210938 259.183594 183.214844 256.125 L 183.214844 251.144531 C 183.214844 250.96875 183.214844 250.789062 183.214844 250.601562 L 183.304688 248.882812 C 183.539062 246.746094 184.394531 244.566406 187.535156 244.566406 C 189.917969 244.566406 191.851562 246.496094 191.851562 248.882812 L 191.851562 276.582031 C 191.851562 278.964844 189.917969 280.898438 187.535156 280.898438 " fill-opacity="1" fill-rule="nonzero"/></g><g clip-path="url(#12b2fd957e)"><path fill="#efefef" d="M 187.519531 130.488281 C 185.136719 130.488281 183.203125 128.558594 183.203125 126.171875 L 183.203125 98.472656 C 183.203125 96.089844 185.136719 94.15625 187.519531 94.15625 C 189.902344 94.15625 191.851562 96.089844 191.851562 98.472656 L 191.851562 111.683594 C 191.851562 111.773438 191.847656 111.863281 191.84375 111.953125 C 191.84375 112.917969 191.839844 116.636719 191.839844 120.023438 L 191.839844 124.308594 C 191.839844 124.433594 191.839844 124.566406 191.835938 124.710938 L 191.757812 126.171875 C 191.535156 128.148438 190.695312 130.488281 187.519531 130.488281 " fill-opacity="1" fill-rule="nonzero"/></g><path fill="#efefef" d="M 206.480469 133.492188 C 205.417969 133.492188 204.367188 133.097656 203.558594 132.347656 C 202.316406 131.207031 201.855469 129.445312 202.375 127.839844 L 210.933594 101.496094 C 211.652344 99.289062 213.992188 98.042969 216.226562 98.679688 C 217.351562 99.003906 218.304688 99.769531 218.855469 100.804688 C 219.410156 101.839844 219.523438 103.054688 219.160156 104.167969 L 215.078125 116.734375 C 215.046875 116.8125 215.019531 116.890625 214.992188 116.96875 C 214.726562 117.773438 213.777344 120.695312 212.828125 123.621094 C 212.484375 124.675781 212.183594 125.605469 211.914062 126.425781 L 210.585938 130.507812 L 210.5 130.480469 C 209.695312 132.507812 209.257812 132.691406 208.148438 133.15625 C 207.609375 133.382812 207.042969 133.492188 206.480469 133.492188 " fill-opacity="1" fill-rule="nonzero"/><path fill="#efefef" d="M 223.636719 142.269531 C 223.035156 142.269531 222.378906 142.109375 221.652344 141.75 C 220.519531 141.179688 219.691406 140.144531 219.390625 138.910156 C 219.089844 137.679688 219.34375 136.375 220.089844 135.347656 L 236.371094 112.941406 C 237.054688 112.003906 238.082031 111.382812 239.222656 111.210938 C 240.375 111.027344 241.53125 111.332031 242.457031 112.023438 C 244.34375 113.441406 244.757812 116.117188 243.371094 118.027344 L 235.605469 128.710938 C 235.550781 128.78125 235.496094 128.851562 235.441406 128.921875 C 234.929688 129.625 233.132812 132.09375 231.335938 134.566406 L 228.40625 138.59375 C 228.285156 138.761719 228.164062 138.929688 228.039062 139.097656 L 227.078125 140.425781 L 227.019531 140.382812 C 226.085938 141.441406 225.011719 142.269531 223.636719 142.269531 " fill-opacity="1" fill-rule="nonzero"/><path fill="#efefef" d="M 236.871094 155.835938 C 235.957031 155.835938 235.050781 155.453125 234.105469 154.511719 C 233.210938 153.617188 232.753906 152.378906 232.855469 151.121094 C 232.953125 149.859375 233.601562 148.707031 234.621094 147.964844 L 257.03125 131.683594 C 258.960938 130.28125 261.660156 130.710938 263.058594 132.640625 C 263.734375 133.566406 264.015625 134.726562 263.835938 135.859375 C 263.65625 136.988281 263.039062 138.007812 262.113281 138.683594 L 251.429688 146.445312 C 251.351562 146.503906 251.273438 146.554688 251.195312 146.605469 C 250.582031 147.046875 248.761719 148.371094 246.742188 149.835938 L 241.992188 153.285156 C 241.753906 153.457031 241.519531 153.628906 241.285156 153.796875 L 239.695312 154.949219 L 239.648438 154.886719 C 238.6875 155.460938 237.777344 155.835938 236.871094 155.835938 " fill-opacity="1" fill-rule="nonzero"/><path fill="#efefef" d="M 245.289062 172.859375 C 244.449219 172.859375 244.027344 172.554688 243.339844 172.050781 C 242.027344 171.097656 241.359375 169.488281 241.613281 167.886719 C 241.867188 166.28125 243 164.957031 244.542969 164.453125 L 270.882812 155.894531 C 271.996094 155.535156 273.214844 155.640625 274.246094 156.191406 C 275.28125 156.742188 276.046875 157.6875 276.371094 158.816406 C 277.007812 161.050781 275.765625 163.402344 273.558594 164.121094 L 260.996094 168.203125 C 260.910156 168.230469 260.824219 168.253906 260.738281 168.277344 C 260.007812 168.515625 257.671875 169.273438 255.140625 170.09375 C 253.902344 170.496094 252.8125 170.851562 251.859375 171.15625 L 247.210938 172.667969 L 247.175781 172.558594 C 246.34375 172.765625 245.753906 172.859375 245.289062 172.859375 " fill-opacity="1" fill-rule="nonzero"/><g clip-path="url(#c44906217f)"><path fill="#efefef" d="M 276.582031 191.851562 L 263.371094 191.851562 C 263.273438 191.851562 263.183594 191.847656 263.089844 191.84375 C 262.304688 191.84375 259.863281 191.84375 257.21875 191.839844 L 251.570312 191.839844 C 251.324219 191.839844 251.074219 191.839844 250.824219 191.835938 L 248.882812 191.746094 C 246.582031 191.503906 244.5625 190.632812 244.5625 187.519531 C 244.5625 185.136719 246.496094 183.203125 248.882812 183.203125 L 276.582031 183.203125 C 278.964844 183.203125 280.898438 185.136719 280.898438 187.519531 C 280.898438 189.902344 278.964844 191.851562 276.582031 191.851562 " fill-opacity="1" fill-rule="nonzero"/></g><path fill="#efefef" d="M 272.207031 219.371094 C 271.761719 219.371094 271.316406 219.300781 270.882812 219.160156 L 258.320312 215.078125 C 258.238281 215.050781 258.152344 215.019531 258.070312 214.988281 C 257.3125 214.738281 254.808594 213.925781 252.160156 213.0625 C 251.011719 212.691406 250 212.363281 249.101562 212.066406 L 244.546875 210.585938 L 244.582031 210.480469 C 242.167969 209.5 242.035156 208.945312 241.683594 207.488281 C 241.320312 205.96875 241.804688 204.371094 242.953125 203.3125 C 244.101562 202.25 245.726562 201.894531 247.214844 202.375 L 273.558594 210.933594 C 275.765625 211.652344 277.011719 213.992188 276.375 216.226562 C 276.050781 217.351562 275.285156 218.308594 274.25 218.859375 C 273.613281 219.195312 272.914062 219.371094 272.207031 219.371094 " fill-opacity="1" fill-rule="nonzero"/><path fill="#d6d6d6" d="M 259.5625 244.1875 C 258.660156 244.1875 257.773438 243.90625 257.03125 243.371094 L 246.34375 235.605469 C 246.269531 235.554688 246.199219 235.5 246.132812 235.441406 C 245.316406 234.851562 242.117188 232.523438 239.300781 230.476562 C 238.636719 229.992188 238.039062 229.558594 237.503906 229.167969 L 234.628906 227.078125 L 234.671875 227.019531 C 232.851562 225.523438 232.851562 225.027344 232.851562 223.585938 C 232.851562 221.960938 233.761719 220.476562 235.207031 219.738281 C 236.65625 219 238.390625 219.136719 239.707031 220.09375 L 262.113281 236.371094 C 263.988281 237.734375 264.453125 240.332031 263.167969 242.257812 C 262.515625 243.238281 261.488281 243.914062 260.332031 244.121094 C 260.078125 244.164062 259.820312 244.1875 259.5625 244.1875 " fill-opacity="1" fill-rule="nonzero"/><path fill="#afafaf" d="M 239.867188 263.890625 C 239.675781 263.890625 239.484375 263.878906 239.292969 263.851562 C 238.125 263.695312 237.066406 263.070312 236.371094 262.113281 L 228.605469 251.429688 C 228.554688 251.355469 228.503906 251.277344 228.453125 251.203125 C 227.9375 250.488281 226.148438 248.023438 224.359375 245.558594 C 223.707031 244.660156 223.132812 243.871094 222.628906 243.171875 L 220.105469 239.695312 L 220.175781 239.644531 C 219 237.78125 219.113281 237.316406 219.402344 236.136719 C 219.800781 234.5 221.113281 233.25 222.761719 232.925781 C 224.402344 232.597656 226.101562 233.261719 227.089844 234.621094 L 243.367188 257.03125 C 244.722656 258.898438 244.375 261.5 242.570312 262.9375 C 241.800781 263.558594 240.84375 263.890625 239.867188 263.890625 " fill-opacity="1" fill-rule="nonzero"/><path fill="#919191" d="M 215.046875 276.535156 C 214.390625 276.535156 213.738281 276.390625 213.140625 276.097656 C 212.097656 275.582031 211.292969 274.667969 210.933594 273.558594 L 206.851562 260.996094 C 206.820312 260.90625 206.792969 260.8125 206.773438 260.722656 C 206.484375 259.832031 205.472656 256.722656 204.496094 253.710938 C 204.183594 252.75 203.90625 251.898438 203.664062 251.136719 L 202.386719 247.210938 L 202.472656 247.183594 C 201.882812 244.875 202.183594 244.460938 203 243.339844 C 203.957031 242.027344 205.5625 241.359375 207.167969 241.613281 C 208.773438 241.867188 210.097656 243 210.597656 244.542969 L 219.160156 270.882812 C 219.878906 273.105469 218.703125 275.5 216.507812 276.285156 C 216.035156 276.453125 215.539062 276.535156 215.046875 276.535156 " fill-opacity="1" fill-rule="nonzero"/><path fill="#6d6d6d" d="M 160.015625 276.542969 C 159.59375 276.542969 159.167969 276.480469 158.742188 276.351562 C 157.640625 276.007812 156.710938 275.238281 156.175781 274.210938 C 155.644531 273.183594 155.539062 271.984375 155.894531 270.882812 L 159.976562 258.320312 C 160.003906 258.238281 160.035156 258.152344 160.066406 258.074219 C 160.335938 257.25 161.28125 254.339844 162.226562 251.433594 C 162.570312 250.378906 162.871094 249.449219 163.140625 248.632812 L 164.46875 244.546875 L 164.554688 244.574219 C 165.363281 242.546875 165.800781 242.363281 166.90625 241.898438 C 168.464844 241.246094 170.257812 241.5625 171.5 242.707031 C 172.742188 243.847656 173.203125 245.609375 172.679688 247.214844 L 164.121094 273.558594 C 163.527344 275.378906 161.835938 276.542969 160.015625 276.542969 " fill-opacity="1" fill-rule="nonzero"/><path fill="#6d6d6d" d="M 135.1875 263.894531 C 134.363281 263.894531 133.527344 263.660156 132.792969 263.167969 C 131.816406 262.515625 131.140625 261.488281 130.933594 260.332031 C 130.726562 259.175781 130.992188 257.980469 131.683594 257.03125 L 139.449219 246.34375 C 139.503906 246.269531 139.558594 246.195312 139.617188 246.125 C 140.101562 245.460938 141.679688 243.285156 143.339844 241.003906 C 144.078125 239.992188 144.71875 239.109375 145.285156 238.335938 L 147.976562 234.628906 L 148.058594 234.6875 C 149.472656 232.996094 149.953125 232.957031 151.132812 232.867188 C 152.820312 232.71875 154.414062 233.589844 155.238281 235.058594 C 156.058594 236.527344 155.953125 238.34375 154.964844 239.707031 L 138.683594 262.113281 C 137.839844 263.273438 136.523438 263.894531 135.1875 263.894531 " fill-opacity="1" fill-rule="nonzero"/><path fill="#6d6d6d" d="M 115.488281 244.195312 C 114.175781 244.195312 112.878906 243.597656 112.03125 242.46875 C 111.339844 241.542969 111.042969 240.371094 111.210938 239.226562 C 111.386719 238.082031 112.003906 237.050781 112.9375 236.371094 L 123.625 228.605469 C 123.699219 228.554688 123.773438 228.503906 123.847656 228.457031 C 124.550781 227.945312 127.023438 226.152344 129.496094 224.359375 L 133.527344 221.429688 C 133.703125 221.300781 133.882812 221.171875 134.0625 221.042969 L 135.355469 220.101562 L 135.398438 220.160156 C 137.15625 219.121094 139.042969 218.632812 140.949219 220.542969 C 141.839844 221.4375 142.296875 222.675781 142.199219 223.933594 C 142.097656 225.195312 141.453125 226.34375 140.433594 227.089844 L 118.023438 243.371094 C 117.257812 243.925781 116.371094 244.195312 115.488281 244.195312 " fill-opacity="1" fill-rule="nonzero"/><path fill="#6d6d6d" d="M 102.835938 219.371094 C 102.132812 219.371094 101.4375 219.199219 100.804688 218.863281 C 99.773438 218.3125 99.007812 217.363281 98.683594 216.238281 C 98.046875 214.003906 99.285156 211.648438 101.496094 210.933594 L 114.058594 206.851562 C 114.144531 206.820312 114.234375 206.796875 114.320312 206.773438 C 115.238281 206.476562 118.6875 205.355469 121.875 204.324219 L 126.027344 202.976562 C 126.191406 202.925781 126.355469 202.871094 126.523438 202.816406 L 127.84375 202.386719 L 127.863281 202.441406 C 129.757812 202.015625 131.796875 202.082031 133.039062 204.5625 C 133.601562 205.6875 133.644531 207 133.160156 208.160156 C 132.675781 209.320312 131.707031 210.210938 130.511719 210.597656 L 104.167969 219.160156 C 103.734375 219.300781 103.285156 219.371094 102.835938 219.371094 " fill-opacity="1" fill-rule="nonzero"/><g clip-path="url(#28c273c45f)"><path fill="#6d6d6d" d="M 126.175781 191.851562 L 98.472656 191.851562 C 96.089844 191.851562 94.15625 189.917969 94.15625 187.535156 C 94.15625 185.148438 96.089844 183.203125 98.472656 183.203125 L 111.683594 183.203125 C 111.773438 183.203125 111.859375 183.207031 111.945312 183.210938 C 112.816406 183.210938 115.875 183.210938 118.929688 183.214844 L 123.910156 183.214844 C 124.085938 183.214844 124.265625 183.214844 124.453125 183.214844 L 126.175781 183.304688 C 128.308594 183.539062 130.488281 184.394531 130.488281 187.535156 C 130.488281 189.917969 128.558594 191.851562 126.175781 191.851562 " fill-opacity="1" fill-rule="nonzero"/></g><path fill="#6d6d6d" d="M 129.171875 172.890625 C 128.726562 172.890625 128.277344 172.824219 127.839844 172.679688 L 101.496094 164.121094 C 99.253906 163.390625 98.011719 161 98.707031 158.742188 C 99.046875 157.640625 99.816406 156.710938 100.84375 156.175781 C 101.871094 155.644531 103.074219 155.539062 104.167969 155.894531 L 116.734375 159.976562 C 116.816406 160.003906 116.902344 160.035156 116.984375 160.066406 C 117.8125 160.335938 120.714844 161.28125 123.621094 162.226562 C 124.675781 162.570312 125.601562 162.871094 126.417969 163.140625 L 130.507812 164.46875 L 130.480469 164.554688 C 132.507812 165.363281 132.691406 165.800781 133.15625 166.90625 C 133.808594 168.464844 133.492188 170.257812 132.351562 171.5 C 131.519531 172.402344 130.359375 172.890625 129.171875 172.890625 " fill-opacity="1" fill-rule="nonzero"/><path fill="#6d6d6d" d="M 137.886719 155.789062 C 136.992188 155.789062 136.101562 155.507812 135.347656 154.964844 L 112.941406 138.683594 C 111.066406 137.320312 110.601562 134.722656 111.886719 132.792969 C 112.539062 131.816406 113.566406 131.140625 114.722656 130.933594 C 115.882812 130.726562 117.074219 130.992188 118.027344 131.683594 L 128.710938 139.445312 C 128.785156 139.503906 128.859375 139.558594 128.929688 139.617188 C 129.59375 140.101562 131.769531 141.679688 134.050781 143.339844 C 135.0625 144.078125 135.949219 144.722656 136.722656 145.285156 L 140.425781 147.976562 L 140.367188 148.058594 C 142.058594 149.472656 142.097656 149.953125 142.191406 151.132812 C 142.324219 152.8125 141.464844 154.414062 139.996094 155.238281 C 139.335938 155.605469 138.613281 155.789062 137.886719 155.789062 " fill-opacity="1" fill-rule="nonzero"/><path fill="#6d6d6d" d="M 151.457031 142.210938 C 151.347656 142.210938 151.234375 142.207031 151.121094 142.199219 C 149.859375 142.097656 148.710938 141.453125 147.964844 140.433594 L 131.6875 118.023438 C 130.339844 116.171875 130.675781 113.59375 132.445312 112.144531 C 133.367188 111.394531 134.566406 111.058594 135.738281 111.199219 C 136.914062 111.351562 137.984375 111.976562 138.683594 112.9375 L 146.449219 123.625 C 146.5 123.699219 146.550781 123.773438 146.597656 123.847656 C 147.109375 124.550781 148.902344 127.023438 150.699219 129.496094 L 153.625 133.527344 C 153.75 133.703125 153.878906 133.878906 154.007812 134.058594 L 154.953125 135.359375 L 154.894531 135.398438 C 155.9375 137.15625 156.421875 139.039062 154.511719 140.949219 C 153.699219 141.757812 152.601562 142.210938 151.457031 142.210938 " fill-opacity="1" fill-rule="nonzero"/><path fill="#6d6d6d" d="M 168.5625 133.496094 C 168.339844 133.496094 168.113281 133.476562 167.886719 133.441406 C 166.28125 133.1875 164.957031 132.054688 164.457031 130.511719 L 155.898438 104.167969 C 155.175781 101.949219 156.351562 99.554688 158.550781 98.769531 C 159.648438 98.378906 160.867188 98.441406 161.914062 98.957031 C 162.960938 99.472656 163.761719 100.386719 164.125 101.496094 L 168.207031 114.058594 C 168.234375 114.144531 168.257812 114.230469 168.28125 114.316406 C 168.558594 115.183594 169.574219 118.3125 170.558594 121.34375 C 170.875 122.316406 171.15625 123.183594 171.402344 123.949219 L 172.667969 127.84375 L 172.582031 127.871094 C 173.171875 130.179688 172.871094 130.59375 172.054688 131.714844 C 171.234375 132.84375 169.929688 133.496094 168.5625 133.496094 " fill-opacity="1" fill-rule="nonzero"/></svg>